# xmcd CD database file
#
# Track frame offsets:
#	150
#	21298
#	40374
#	58548
#	78672
#	99018
#	115608
#
# Disc length: 1781 seconds
#
# Revision: 0
# Processed by: cddbd v1.5.2PL0 Copyright (c) Steve Scherf et al.
# Submitted via: CDex 1.51
#
DISCID=4c06f307
DTITLE=Annie Yeh - Something New
DYEAR=2007
DGENRE=Jazz
TTITLE0=Bags' Groove (Milt Jackson)
TTITLE1=Song for My Father (Horace Silver)
TTITLE2=Mercy, Mercy, Mercy (Joe Zawinul)
TTITLE3=St. James Infirmary (Joe Primrose)
TTITLE4=Killer Joe (Benny Golson)
TTITLE5=So Danco Samba (Antonio Carlos Jobim)
TTITLE6=Doxy (Sonny Rollins)
EXTD=YEAR: 2007
EXTT0=
EXTT1=
EXTT2=
EXTT3=
EXTT4=
EXTT5=
EXTT6=
PLAYORDER=
